# AST/ASF file generated using VICON BodyLanguage
# -----------------------------------------------
:version 1.10
:name VICON
:units
  mass 1.0
  length 0.45
  angle deg
:documentation
   .ast/.asf automatically generated from VICON data using
   VICON BodyBuilder and BodyLanguage model FoxedUp or BRILLIANT.MOD
:root
   order TX TY TZ RX RY RZ
   axis XYZ
   position 0 0 0  
   orientation 0 0 0 
:bonedata
  begin
     id 1 
     name lhipjoint
     direction 0.661853 -0.702389 0.261917 
     length 2.64193 
     axis 0 0 0  XYZ
  end
  begin
     id 2 
     name lfemur
     direction 0.34202 -0.939693 0  
     length 7.01722  
     axis 0 0 20  XYZ
    dof rx ry rz
    limits (-160.0 20.0)
           (-70.0 70.0)
           (-60.0 70.0)
  end
  begin
     id 3 
     name ltibia
     direction 0.34202 -0.939693 0   
     length 8.25008   
     axis 0 0 20   XYZ
    dof rx
    limits (-10.0 170.0)
  end
  begin
     id 4 
     name lfoot
     direction 0.0709916 -0.195048 0.978221   
     length 2.31941   
     axis -90 7.62852e-016 20   XYZ
    dof rx rz
    limits (-45.0 90.0)
           (-70.0 20.0)
  end
  begin
     id 5 
     name ltoes
     direction 1.53586e-011 -4.22017e-011 1   
     length 1.16486   
     axis -90 7.62852e-016 20   XYZ
    dof rx
    limits (-90.0 20.0)
  end
  begin
     id 6 
     name rhipjoint
     direction -0.638185 -0.721362 0.268992   
     length 2.57244  
     axis 0 0 0  XYZ 
  end
  begin
     id 7 
     name rfemur
     direction -0.34202 -0.939693 0   
     length 7.07017   
     axis 0 0 -20   XYZ
    dof rx ry rz
    limits (-160.0 20.0)
           (-70.0 70.0)
           (-70.0 60.0)
  end
  begin
     id 8 
     name rtibia
     direction -0.34202 -0.939693 0   
     length 8.20386   
     axis 0 0 -20   XYZ
    dof rx
    limits (-10.0 170.0)
 end
 begin
     id 9 
     name rfoot
     direction -0.0822429 -0.225961 0.970658   
     length 2.32215  
     axis -90 -7.62852e-016 -20   XYZ
    dof rx rz
    limits (-45.0 90.0)
           (-20.0 70.0)
  end
  begin
     id 10 
     name rtoes
     direction -1.53597e-011 -4.21689e-011 1   
     length 1.16333   
     axis -90 -7.62852e-016 -20   XYZ
    dof rx
    limits (-90.0 20.0)
  end
  begin
     id 11 
     name lowerback
     direction -0.0131557 0.998589 -0.0514484   
     length 2.14993   
     axis 0 0 0   XYZ
    dof rx ry rz
    limits (-20.0 45.0)
           (-30.0 30.0)
           (-30.0 30.0)
  end
  begin
     id 12 
     name upperback
     direction -0.000776481 0.999993 0.00352685   
     length 2.15301   
     axis 0 0 0   XYZ
    dof rx ry rz
    limits (-20.0 45.0)
           (-30.0 30.0)
           (-30.0 30.0)
  end
  begin
     id 13 
     name thorax
     direction 0.00438186 0.999609 0.0276143   
     length 2.15424   
     axis 0 0 0   XYZ
    dof rx ry rz
    limits (-20.0 45.0)
           (-30.0 30.0)
           (-30.0 30.0)
  end
  begin
     id 14 
     name lowerneck
     direction -0.0488006 0.998094 0.0377807   
     length 1.90481   
     axis 0 0 0   XYZ
    dof rx ry rz
    limits (-20.0 45.0)
           (-30.0 30.0)
           (-30.0 30.0)
  end
  begin
     id 15 
     name upperneck
     direction 0.0443769 0.990702 -0.12861   
     length 1.91305   
     axis 0 0 0   XYZ
    dof rx ry rz
    limits (-20.0 45.0)
           (-30.0 30.0)
           (-30.0 30.0)
  end
  begin
     id 16
     name head
     direction 0.0165599 0.998647 -0.0492982  
     length 1.92369  
     axis 0 0 0   XYZ
    dof rx ry rz
    limits (-20.0 45.0)
           (-30.0 30.0)
           (-30.0 30.0)
  end
  begin
     id 17 
     name lclavicle
     direction 0.911936 0.410197 -0.0105506  
     length 3.52622  
     axis 0 0 0   XYZ
    dof ry rz
    limits (-20.0 10.0)
           (0.0 20.0)
  end
  begin
     id 18 
     name lhumerus
     direction 1 -4.48974e-011 -2.48591e-028   
     length 5.47651   
     axis 180 -30 -90   XYZ
    dof rx ry rz
    limits (-60.0 90.0)
           (-90.0 90.0)
           (-90.0 90.0)
  end
  begin
     id 19
     name lradius
     direction 1 -4.48938e-011 -4.40099e-027   
     length 3.09058   
     axis 180 -30 -90   XYZ
    dof rx
    limits (-10.0 170.0)
  end
  begin
     id 20
     name lwrist
     direction 1 -4.49042e-011 -2.99852e-027   
     length 1.54529   
     axis 1.95339e-015 90 90   XYZ
    dof ry
    limits (-180.0 0.0)
 end
  begin
     id 21 
     name lhand
     direction 1 -4.48815e-011 -5.98193e-027   
     length 0.771611   
     axis 3.82337e-015 90 90   XYZ
    dof rx rz
    limits (-90.0 90.0)
           (-45.0 45.0)
  end
  begin
     id 22 
     name lfingers
     direction 1 -4.49034e-011 -1.1993e-026   
     length 0.622093   
     axis 7.64668e-015 90 90   XYZ
    dof rx
    limits (0.0 90.0)
  end
  begin
     id 23
     name lthumb
     direction 0.707107 -6.34867e-011 0.707107   
     length 0.893204   
     axis -90 45 -1.62303e-014   XYZ
    dof rx rz
    limits (-45.0 45.0)
           (-45.0 45.0)
  end
  begin
     id 24 
     name rclavicle
     direction -0.93442 0.355634 -0.0195692   
     length 3.62463  
     axis 0 0 0   XYZ 
    dof ry rz
    limits (-10.0 20.0)
           (-20.0 0.0)
  end
  begin
     id 25 
     name rhumerus
     direction -1 -4.48957e-011 -1.19147e-027  
     length 5.14182   
     axis 180 30 90   XYZ
    dof rx ry rz
    limits (-90.0 60.0)
           (-90.0 90.0)
           (-90.0 90.0)
  end
  begin
     id 26 
     name rradius
     direction -1 -4.48952e-011 -3.81062e-027   
     length 3.35565   
     axis 180 30 90   XYZ
    dof rx
    limits (-10.0 170.0)
  end
  begin
     id 27 
     name rwrist
     direction -1 -4.48973e-011 -2.99621e-027   
     length 1.67782   
     axis 1.95339e-015 -90 -90   XYZ
    dof ry
    limits (-180.0 0.0)
  end
  begin
     id 28
     name rhand
     direction -1 -4.48895e-011 -5.98727e-027   
     length 0.801042   
     axis 3.82337e-015 -90 -90   XYZ
    dof rx rz
    limits (-90.0 90.0)
           (-45.0 45.0)
  end
  begin
     id 29
     name rfingers
     direction -1 -4.49065e-011 -1.19972e-026   
     length 0.645821   
     axis 7.64668e-015 -90 -90   XYZ
    dof rx
    limits (0.0 90.0)
  end
  begin
     id 30
     name rthumb
     direction -0.707107 -6.34957e-011 0.707107   
     length 0.927273   
     axis -90 -45 1.62303e-014   XYZ
    dof rx rz
    limits (-45.0 45.0)
           (-45.0 45.0)
  end
:hierarchy
  begin
    root lhipjoint rhipjoint lowerback
    lhipjoint lfemur
    lfemur ltibia
    ltibia lfoot
    lfoot ltoes
    rhipjoint rfemur
    rfemur rtibia
    rtibia rfoot
    rfoot rtoes
    lowerback upperback
    upperback thorax
    thorax lowerneck lclavicle rclavicle
    lowerneck upperneck
    upperneck head
    lclavicle lhumerus
    lhumerus lradius
    lradius lwrist
    lwrist lhand lthumb
    lhand lfingers
    rclavicle rhumerus
    rhumerus rradius
    rradius rwrist
    rwrist rhand rthumb
    rhand rfingers
  end

#!OML:ASF E:\Style4\Style4.ASF
:FULLY-SPECIFIED
:DEGREES
1
root 0.386528 17.6103 -1.89349 2.45799 -3.29453 2.02655
lowerback 10.004 2.68408 -0.842274
upperback 4.44501 3.47167 0.00280244
thorax -1.03296 1.72003 0.103837
lowerneck 0.0347673 -4.63905 -5.50284
upperneck 1.41642 -6.20954 3.59143
head 0.737868 -3.11362 2.00755
rclavicle -2.78299e-014 -2.78299e-015
rhumerus 30.9146 5.18966 -69.1645
rradius 41.0079
rwrist -64.7078
rhand -2.61116 9.00742
rfingers 7.12502
rthumb 23.0871 -19.6295
lclavicle -2.78299e-014 -2.78299e-015
lhumerus 30.2391 -22.8691 61.8032
lradius 55.2557
lwrist 62.1684
lhand -3.11428 29.022
lfingers 7.12502
lthumb 22.6043 57.7185
rfemur -21.4791 3.42734 14.8348
rtibia 37.3759
rfoot -17.1934 -12.2189
rtoes -14.0726
lfemur -19.8461 1.42552 -22.096
ltibia 36.678
lfoot -19.6386 7.84293
ltoes -13.562
2
root 0.387173 17.6077 -1.89403 2.43901 -3.29044 2.11059
lowerback 10.0583 2.69318 -0.888596
upperback 4.42995 3.47768 -0.0517616
thorax -1.0775 1.72305 0.0696818
lowerneck 0.0440482 -4.6477 -5.40663
upperneck 1.46402 -6.22222 3.56501
head 0.747404 -3.11988 1.98142
rclavicle -2.6339e-014 -2.38542e-015
rhumerus 30.8583 5.12325 -69.2303
rradius 41.0796
rwrist -64.6678
rhand -2.66476 8.98484
rfingers 7.12502
rthumb 23.0357 -19.6585
lclavicle -2.6339e-014 -2.38542e-015
lhumerus 30.2219 -22.8685 61.7933
lradius 55.2951
lwrist 62.0077
lhand -1.83373 29.6159
lfingers 7.12502
lthumb 23.8329 58.1575
rfemur -21.523 3.41679 14.7334
rtibia 37.4771
rfoot -17.4199 -12.059
rtoes -13.7397
lfemur -19.7747 1.45677 -22.193
ltibia 36.6226
lfoot -19.5693 7.75305
ltoes -13.2909
3
root 0.387312 17.606 -1.89487 2.43078 -3.30457 2.11
lowerback 10.0711 2.69852 -0.872946
upperback 4.44487 3.48582 -0.0613109
thorax -1.06758 1.72729 0.0500703
lowerneck 0.0207273 -4.65206 -5.41386
upperneck 1.50064 -6.22768 3.58536
head 0.76424 -3.12254 1.98819
rclavicle 1.40143e-014 5.56597e-015
rhumerus 30.8769 5.09286 -69.2328
rradius 41.1432
rwrist -64.6202
rhand -2.68239 8.98745
rfingers 7.12502
rthumb 23.0188 -19.658
lclavicle 1.40143e-014 5.56597e-015
lhumerus 30.2563 -22.9174 61.7062
lradius 55.4184
lwrist 62.1047
lhand -1.74535 29.7522
lfingers 7.12502
lthumb 23.9176 58.2827
rfemur -21.5412 3.39557 14.7298
rtibia 37.5122
rfoot -17.4328 -12.0009
rtoes -13.5792
lfemur -19.7582 1.44976 -22.1934
ltibia 36.629
lfoot -19.5476 7.76449
ltoes -13.1023
4
root 0.386134 17.6063 -1.89531 2.4248 -3.29553 2.05307
lowerback 10.0734 2.68078 -0.832076
upperback 4.45778 3.46658 -0.0350411
thorax -1.05459 1.71788 0.0567101
lowerneck 0.057938 -4.64588 -5.44449
upperneck 1.50553 -6.22142 3.59863
head 0.760722 -3.11985 1.9989
rclavicle -5.04913e-014 3.97569e-016
rhumerus 30.865 5.19922 -69.1483
rradius 41.2843
rwrist -64.708
rhand -2.77972 9.03243
rfingers 7.12502
rthumb 22.9254 -19.6246
lclavicle -5.04913e-014 3.97569e-016
lhumerus 30.254 -22.9936 61.5628
lradius 55.6392
lwrist 62.3065
lhand -2.19967 29.8119
lfingers 7.12502
lthumb 23.4819 58.3989
rfemur -21.5569 3.38458 14.8051
rtibia 37.5775
rfoot -17.449 -12.0611
rtoes -13.7248
lfemur -19.7534 1.47024 -22.1277
ltibia 36.6276
lfoot -19.5209 7.78181
ltoes -13.1321
5
root 0.385499 17.6075 -1.89659 2.43179 -3.30272 2.05426
lowerback 10.0862 2.67794 -0.836694
upperback 4.45496 3.46215 -0.0370755
thorax -1.06457 1.71564 0.056952
lowerneck 0.0763725 -4.64655 -5.47105
upperneck 1.52797 -6.22387 3.62496
head 0.766728 -3.12135 2.01233
rclavicle -4.1546e-014 8.74653e-015
rhumerus 30.8394 5.2369 -69.1169
rradius 41.4158
rwrist -64.7647
rhand -2.81457 8.9937
rfingers 7.12502
rthumb 22.8919 -19.6675
lclavicle -4.1546e-014 8.74653e-015
lhumerus 30.2762 -23.0627 61.4495
lradius 55.8242
lwrist 62.4536
lhand -2.18886 30.5225
lfingers 7.12502
lthumb 23.4922 59.108
rfemur -21.5788 3.40445 14.8091
rtibia 37.6551
rfoot -17.4373 -12.0326
rtoes -13.7221
lfemur -19.7674 1.50245 -22.134
ltibia 36.6344
lfoot -19.5017 7.76549
ltoes -13.1397
6
root 0.384461 17.6099 -1.89697 2.45526 -3.31968 2.08249
lowerback 10.0736 2.68388 -0.886235
upperback 4.44187 3.46545 -0.0454998
thorax -1.07365 1.71683 0.0757537
lowerneck 0.106764 -4.64026 -5.45199
upperneck 1.55139 -6.21743 3.626
head 0.767939 -3.11838 2.00989
rclavicle 8.64713e-015 -3.18055e-015
rhumerus 30.8086 5.27291 -69.1082
rradius 41.5351
rwrist -64.7876
rhand -2.88225 8.94836
rfingers 7.12502
rthumb 22.827 -19.7208
lclavicle 8.64713e-015 -3.18055e-015
lhumerus 30.2651 -23.1428 61.3366
lradius 56.0185
lwrist 62.495
lhand -2.04149 31.0655
lfingers 7.12502
lthumb 23.6336 59.6329
rfemur -21.5858 3.40656 14.7822
rtibia 37.7181
rfoot -17.317 -11.9385
rtoes -13.7722
lfemur -19.8091 1.54037 -22.1786
ltibia 36.6498
lfoot -19.4304 7.86794
ltoes -13.7524
7
root 0.383247 17.611 -1.89786 2.47862 -3.33005 2.11192
lowerback 10.0576 2.69764 -0.925691
upperback 4.44185 3.47999 -0.0596103
thorax -1.0665 1.72375 0.0824302
lowerneck 0.114101 -4.64681 -5.41135
upperneck 1.5477 -6.22618 3.59937
head 0.763449 -3.12269 1.99413
rclavicle 3.26007e-014 -1.23246e-014
rhumerus 30.7591 5.32964 -69.0293
rradius 41.7056
rwrist -64.8424
rhand -3.05725 8.99358
rfingers 7.12502
rthumb 22.659 -19.6962
lclavicle 3.26007e-014 -1.23246e-014
lhumerus 30.284 -23.2522 61.1987
lradius 56.226
lwrist 62.5132
lhand -1.94142 30.6775
lfingers 7.12502
lthumb 23.7296 59.2325
rfemur -21.62 3.39939 14.7519
rtibia 37.7744
rfoot -17.275 -11.8412
rtoes -13.5778
lfemur -19.8443 1.54537 -22.211
ltibia 36.6518
lfoot -19.4012 8.02063
ltoes -14.631
8
root 0.382423 17.6116 -1.89831 2.47288 -3.32105 2.05412
lowerback 10.0779 2.68248 -0.873509
upperback 4.44709 3.46487 -0.0348977
thorax -1.07051 1.71656 0.0795818
lowerneck 0.142712 -4.64627 -5.393
upperneck 1.5218 -6.22573 3.54962
head 0.747799 -3.12271 1.97577
rclavicle 5.86415e-015 2.38542e-015
rhumerus 30.7054 5.49359 -68.9038
rradius 41.9529
rwrist -64.9597
rhand -3.23814 8.97925
rfingers 7.12502
rthumb 22.4854 -19.7317
lclavicle 5.86415e-015 2.38542e-015
lhumerus 30.2432 -23.2551 61.1612
lradius 56.4214
lwrist 62.4611
lhand -1.74805 30.4769
lfingers 7.12502
lthumb 23.915 59.0077
rfemur -21.6052 3.40848 14.8223
rtibia 37.7844
rfoot -17.2854 -11.8346
rtoes -13.2406
lfemur -19.8509 1.55307 -22.1416
ltibia 36.6509
lfoot -19.4119 8.0596
ltoes -15.083
9
root 0.38199 17.6137 -1.89827 2.46413 -3.33982 2.08244
lowerback 10.098 2.6692 -0.918756
upperback 4.44568 3.4429 -0.0319614
thorax -1.08551 1.70506 0.109192
lowerneck 0.156608 -4.63243 -5.42657
upperneck 1.53504 -6.20788 3.54255
head 0.749675 -3.1142 1.97988
rclavicle 4.03533e-014 -4.37326e-015
rhumerus 30.6282 5.69749 -68.8065
rradius 42.2704
rwrist -65.016
rhand -3.28201 8.865
rfingers 7.12502
rthumb 22.4433 -19.851
lclavicle 4.03533e-014 -4.37326e-015
lhumerus 30.1522 -23.2511 61.1566
lradius 56.6534
lwrist 62.4295
lhand -1.7008 30.648
lfingers 7.12502
lthumb 23.9603 59.1728
rfemur -21.585 3.40359 14.7922
rtibia 37.7601
rfoot -17.2729 -11.8291
rtoes -13.3415
lfemur -19.844 1.53976 -22.1679
ltibia 36.6368
lfoot -19.3867 8.05304
ltoes -14.8965
10
root 0.38078 17.615 -1.89713 2.44752 -3.35379 2.08178
lowerback 10.0978 2.66615 -0.94885
upperback 4.46194 3.43654 -0.0107962
thorax -1.07155 1.70129 0.148956
lowerneck 0.144282 -4.62123 -5.45076
upperneck 1.55749 -6.19212 3.51962
head 0.758101 -3.1066 1.97638
rclavicle -1.09332e-015 2.78299e-015
rhumerus 30.585 5.91144 -68.6565
rradius 42.5461
rwrist -65.0253
rhand -3.45025 8.94313
rfingers 7.12502
rthumb 22.2818 -19.7923
lclavicle -1.09332e-015 2.78299e-015
lhumerus 30.0895 -23.324 61.09
lradius 56.9618
lwrist 62.4672
lhand -1.62993 31.3273
lfingers 7.12502
lthumb 24.0283 59.8432
rfemur -21.5445 3.4304 14.7977
rtibia 37.7143
rfoot -17.2281 -11.859
rtoes -13.4145
lfemur -19.8075 1.55719 -22.163
ltibia 36.6186
lfoot -19.3643 8.01641
ltoes -14.5416
11
root 0.379878 17.6161 -1.89601 2.43112 -3.36317 2.0526
lowerback 10.131 2.68526 -0.907366
upperback 4.45749 3.46497 -0.0182186
thorax -1.0917 1.71602 0.113289
lowerneck 0.150338 -4.63682 -5.38161
upperneck 1.57426 -6.21307 3.48247
head 0.759431 -3.11698 1.95174
rclavicle -1.2921e-015 -3.97569e-016
rhumerus 30.4375 6.04388 -68.546
rradius 42.8756
rwrist -64.9264
rhand -3.68194 9.08057
rfingers 7.12502
rthumb 22.0594 -19.6813
lclavicle -1.2921e-015 -3.97569e-016
lhumerus 30.02 -23.5511 60.9282
lradius 57.3936
lwrist 62.4673
lhand -1.60064 31.877
lfingers 7.12502
lthumb 24.0564 60.3893
rfemur -21.4995 3.4463 14.8402
rtibia 37.6706
rfoot -17.1812 -11.9101
rtoes -13.6179
lfemur -19.7561 1.55749 -22.1261
ltibia 36.5796
lfoot -19.4148 8.02201
ltoes -14.4378
12
root 0.37941 17.618 -1.89465 2.45733 -3.38927 2.023
lowerback 10.1485 2.69231 -0.868344
upperback 4.41933 3.47735 -0.0253528
thorax -1.13822 1.72281 0.0807734
lowerneck 0.167585 -4.62933 -5.38099
upperneck 1.59866 -6.20451 3.49648
head 0.764274 -3.1129 1.95645
rclavicle -1.60022e-014 3.57812e-015
rhumerus 30.2587 6.29663 -68.4034
rradius 43.2874
rwrist -64.8602
rhand -3.92649 9.22406
rfingers 7.12502
rthumb 21.8246 -19.5653
lclavicle -1.60022e-014 3.57812e-015
lhumerus 29.8425 -23.7646 60.7972
lradius 57.9076
lwrist 62.3757
lhand -1.72309 31.6575
lfingers 7.12502
lthumb 23.939 60.1852
rfemur -21.5038 3.45946 14.8738
rtibia 37.6232
rfoot -17.1217 -11.9286
rtoes -13.5609
lfemur -19.7575 1.57324 -22.0961
ltibia 36.5354
lfoot -19.4046 8.06459
ltoes -14.4946
13
root 0.379622 17.6216 -1.89297 2.45442 -3.39194 2.02495
lowerback 10.1947 2.67209 -0.868179
upperback 4.39221 3.44994 -0.0214691
thorax -1.19159 1.70921 0.0845797
lowerneck 0.215544 -4.60254 -5.4312
upperneck 1.57468 -6.17127 3.53062
head 0.750034 -3.09668 1.97841
rclavicle -3.37934e-014 -3.57812e-015
rhumerus 30.0664 6.77025 -68.1096
rradius 43.8563
rwrist -64.8256
rhand -4.4452 9.34105
rfingers 7.12502
rthumb 21.3264 -19.5055
lclavicle -3.37934e-014 -3.57812e-015
lhumerus 29.6591 -23.9628 60.6384
lradius 58.5049
lwrist 62.3609
lhand -2.14395 31.4217
lfingers 7.12502
lthumb 23.5353 60.0018
rfemur -21.4676 3.45091 14.8722
rtibia 37.5673
rfoot -17.0803 -11.9416
rtoes -13.4616
lfemur -19.7155 1.55519 -22.0945
ltibia 36.4793
lfoot -19.415 8.018
ltoes -14.2091
